<svg width="14" height="14" viewBox="0 0 14 14" fill="none" xmlns="http://www.w3.org/2000/svg">
<path d="M0 0H10C12.2091 0 14 1.79086 14 4V14H12C5.37258 14 0 8.62742 0 2V0Z" fill="black" fill-opacity="0.7"/>
<path d="M11.2113 3.37792C11.374 3.2152 11.374 2.95138 11.2113 2.78866C11.0485 2.62595 10.7847 2.62595 10.622 2.78866L7.99996 5.4107L5.37792 2.78866C5.2152 2.62595 4.95138 2.62595 4.78866 2.78866C4.62595 2.95138 4.62595 3.2152 4.78866 3.37792L7.4107 5.99996L4.78866 8.622C4.62595 8.78472 4.62595 9.04854 4.78866 9.21125C4.95138 9.37397 5.2152 9.37397 5.37792 9.21125L7.99996 6.58921L10.622 9.21125C10.7847 9.37397 11.0485 9.37397 11.2113 9.21125C11.374 9.04854 11.374 8.78472 11.2113 8.622L8.58921 5.99996L11.2113 3.37792Z" fill="#C4C9CF"/>
</svg>
