<svg width="22" height="22" viewBox="0 0 22 22" fill="none" xmlns="http://www.w3.org/2000/svg">
<path d="M15.0649 5.23148C15.4229 4.87351 15.4229 4.29308 15.0649 3.93511C14.7069 3.57714 14.1265 3.57714 13.7686 3.93511L11.0001 6.70362L8.23157 3.93511C7.8736 3.57714 7.29317 3.57714 6.9352 3.93511C6.57723 4.29308 6.57723 4.87351 6.9352 5.23148L9.70371 8L6.9352 10.7685C6.57723 11.1265 6.57723 11.7069 6.9352 12.0649C7.29317 12.4229 7.8736 12.4229 8.23157 12.0649L11.0001 9.29638L13.7686 12.0649C14.1265 12.4229 14.7069 12.4229 15.0649 12.0649C15.4229 11.7069 15.4229 11.1265 15.0649 10.7685L12.2964 8L15.0649 5.23148Z" fill="#1B2129"/>
</svg>
