<svg width="22" height="22" viewBox="0 0 22 22" fill="none" xmlns="http://www.w3.org/2000/svg">
<path d="M18.0649 5.23147C18.4229 4.87349 18.4229 4.29309 18.0649 3.93511C17.7069 3.57713 17.1265 3.57713 16.7686 3.93511L11.0001 9.7036L5.2316 3.93511C4.87362 3.57713 4.29321 3.57713 3.93523 3.93511C3.57725 4.29309 3.57725 4.87349 3.93523 5.23147L9.70372 11L3.93523 16.7684C3.57725 17.1264 3.57725 17.7068 3.93523 18.0648C4.29321 18.4228 4.87362 18.4228 5.2316 18.0648L11.0001 12.2963L16.7686 18.0648C17.1265 18.4228 17.7069 18.4228 18.0649 18.0648C18.4229 17.7068 18.4229 17.1264 18.0649 16.7684L12.2964 11L18.0649 5.23147Z" fill="#1B2129"/>
</svg>
