<svg width="18" height="18" viewBox="0 0 18 18" fill="none" xmlns="http://www.w3.org/2000/svg">
<path d="M5.625 9.1875C5.31434 9.1875 5.0625 9.43934 5.0625 9.75C5.0625 10.0607 5.31434 10.3125 5.625 10.3125H11.625C11.9357 10.3125 12.1875 10.0607 12.1875 9.75C12.1875 9.43934 11.9357 9.1875 11.625 9.1875H5.625Z" fill="#1B2129"/>
<path d="M5.0625 12.75C5.0625 12.4393 5.31434 12.1875 5.625 12.1875H11.625C11.9357 12.1875 12.1875 12.4393 12.1875 12.75C12.1875 13.0607 11.9357 13.3125 11.625 13.3125H5.625C5.31434 13.3125 5.0625 13.0607 5.0625 12.75Z" fill="#1B2129"/>
<path d="M5.625 6.1875C5.31434 6.1875 5.0625 6.43934 5.0625 6.75C5.0625 7.06066 5.31434 7.3125 5.625 7.3125H7.125C7.43566 7.3125 7.6875 7.06066 7.6875 6.75C7.6875 6.43934 7.43566 6.1875 7.125 6.1875H5.625Z" fill="#1B2129"/>
<path fill-rule="evenodd" clip-rule="evenodd" d="M2.66659 1.54159C3.05339 1.1548 3.57799 0.9375 4.125 0.9375H10.5C10.6492 0.9375 10.7923 0.996763 10.8977 1.10225L15.0227 5.22725C15.1282 5.33274 15.1875 5.47582 15.1875 5.625V15C15.1875 15.547 14.9702 16.0716 14.5834 16.4584C14.1966 16.8452 13.672 17.0625 13.125 17.0625H4.125C3.57799 17.0625 3.05339 16.8452 2.66659 16.4584C2.2798 16.0716 2.0625 15.547 2.0625 15V3C2.0625 2.45299 2.2798 1.92839 2.66659 1.54159ZM10.6875 2.48299L13.642 5.4375H10.6875V2.48299ZM9.5625 6V2.0625H4.125C3.87636 2.0625 3.6379 2.16127 3.46209 2.33709C3.28627 2.5129 3.1875 2.75136 3.1875 3V15C3.1875 15.2486 3.28627 15.4871 3.46209 15.6629C3.6379 15.8387 3.87636 15.9375 4.125 15.9375H13.125C13.3736 15.9375 13.6121 15.8387 13.7879 15.6629C13.9637 15.4871 14.0625 15.2486 14.0625 15V6.5625H10.125C9.81434 6.5625 9.5625 6.31066 9.5625 6Z" fill="#1B2129"/>
</svg>
