<svg width="16" height="16" viewBox="0 0 16 16" fill="none" xmlns="http://www.w3.org/2000/svg">
<path fill-rule="evenodd" clip-rule="evenodd" d="M12.2929 2.95953C12.0505 2.95953 11.8179 3.05585 11.6465 3.2273C11.6416 3.23221 11.6366 3.23701 11.6314 3.24171L3.40833 10.807L2.9801 12.5199L4.71477 12.0862L12.9459 4.51359C13.0277 4.4301 13.0928 4.33166 13.1375 4.2236C13.1835 4.11268 13.2071 3.9938 13.2071 3.87375C13.2071 3.75369 13.1835 3.63481 13.1375 3.52389C13.0916 3.41298 13.0243 3.31219 12.9394 3.2273C12.8545 3.14241 12.7537 3.07507 12.6428 3.02912C12.5319 2.98318 12.413 2.95953 12.2929 2.95953ZM10.9473 2.5123C11.3055 2.15825 11.789 1.95953 12.2929 1.95953C12.5443 1.95953 12.7932 2.00905 13.0255 2.10524C13.2577 2.20144 13.4687 2.34244 13.6465 2.52019C13.8242 2.69794 13.9652 2.90897 14.0614 3.14121C14.1576 3.37345 14.2071 3.62237 14.2071 3.87375C14.2071 4.12513 14.1576 4.37404 14.0614 4.60628C13.9652 4.83853 13.8242 5.04955 13.6465 5.2273C13.6416 5.23221 13.6366 5.23701 13.6314 5.24171L5.29811 12.9084C5.23662 12.965 5.16192 13.0052 5.08085 13.0255L2.41419 13.6922C2.2438 13.7347 2.06356 13.6848 1.93936 13.5606C1.81517 13.4364 1.76525 13.2562 1.80785 13.0858L2.47451 10.4191C2.49821 10.3244 2.54916 10.2386 2.62106 10.1724L10.9473 2.5123ZM10.4596 10.9481C10.4596 10.672 10.6834 10.4481 10.9596 10.4481H13.6263C13.9024 10.4481 14.1263 10.672 14.1263 10.9481C14.1263 11.2243 13.9024 11.4481 13.6263 11.4481H10.9596C10.6834 11.4481 10.4596 11.2243 10.4596 10.9481ZM7.12625 13.5404C7.12625 13.2643 7.35011 13.0404 7.62625 13.0404H13.6263C13.9024 13.0404 14.1263 13.2643 14.1263 13.5404C14.1263 13.8166 13.9024 14.0404 13.6263 14.0404H7.62625C7.35011 14.0404 7.12625 13.8166 7.12625 13.5404Z" fill="#1B2129"/>
</svg>
