<svg width="18" height="18" viewBox="0 0 18 18" fill="none" xmlns="http://www.w3.org/2000/svg">
<path d="M9.1875 6.9375C9.60171 6.9375 9.9375 7.27329 9.9375 7.6875V12.9375C9.9375 13.3517 9.60171 13.6875 9.1875 13.6875C8.77329 13.6875 8.4375 13.3517 8.4375 12.9375V7.6875C8.4375 7.27329 8.77329 6.9375 9.1875 6.9375Z" fill="#626C78"/>
<path d="M9.18377 4.6875C8.77162 4.6875 8.4375 5.02329 8.4375 5.4375C8.4375 5.85171 8.77162 6.1875 9.18377 6.1875H9.19123C9.60338 6.1875 9.9375 5.85171 9.9375 5.4375C9.9375 5.02329 9.60338 4.6875 9.19123 4.6875H9.18377Z" fill="#626C78"/>
<path fill-rule="evenodd" clip-rule="evenodd" d="M17.0625 9C17.0625 13.4528 13.4528 17.0625 9 17.0625C4.5472 17.0625 0.9375 13.4528 0.9375 9C0.9375 4.5472 4.5472 0.9375 9 0.9375C13.4528 0.9375 17.0625 4.5472 17.0625 9ZM9 15.9375C12.8315 15.9375 15.9375 12.8315 15.9375 9C15.9375 5.16852 12.8315 2.0625 9 2.0625C5.16852 2.0625 2.0625 5.16852 2.0625 9C2.0625 12.8315 5.16852 15.9375 9 15.9375Z" fill="#626C78"/>
</svg>
