<svg width="16" height="16" viewBox="0 0 16 16" fill="none" xmlns="http://www.w3.org/2000/svg">
<g clip-path="url(#clip0_39_355)">
<path d="M11.5759 6.35359C11.7712 6.15833 11.7712 5.84175 11.5759 5.64649C11.3807 5.45122 11.0641 5.45122 10.8688 5.64649L7.22237 9.29293L5.57592 7.64649C5.38066 7.45122 5.06408 7.45122 4.86882 7.64649C4.67356 7.84175 4.67356 8.15833 4.86882 8.35359L6.86882 10.3536C7.06408 10.5489 7.38066 10.5489 7.57592 10.3536L11.5759 6.35359Z" fill="#1B2129"/>
<path d="M8.00004 15.1667C11.9582 15.1667 15.1667 11.9582 15.1667 8.00004C15.1667 4.04189 11.9582 0.833374 8.00004 0.833374C4.04189 0.833374 0.833374 4.04189 0.833374 8.00004C0.833374 11.9582 4.04189 15.1667 8.00004 15.1667ZM14.1667 8.00004C14.1667 11.4059 11.4059 14.1667 8.00004 14.1667C4.59418 14.1667 1.83337 11.4059 1.83337 8.00004C1.83337 4.59418 4.59418 1.83337 8.00004 1.83337C11.4059 1.83337 14.1667 4.59418 14.1667 8.00004Z" fill="#1B2129"/>
</g>
<defs>
<clipPath id="clip0_39_355">
<rect width="16" height="16" fill="white"/>
</clipPath>
</defs>
</svg>
