<svg width="24" height="24" viewBox="0 0 24 24" fill="none" xmlns="http://www.w3.org/2000/svg">
<path d="M10.5775 2.73169H13.5193C14.3092 2.73169 15.03 3.41574 15.03 3.41574L16.875 5.54572H20.8C21.3172 5.54572 21.8132 5.77618 22.1789 6.18642C22.5446 6.59666 22.75 7.15305 22.75 7.73322V19.0808C22.75 19.661 22.5446 20.2174 22.1789 20.6276C21.8132 21.0379 21.3172 21.2683 20.8 21.2683H3.2C2.68283 21.2683 2.18684 21.0379 1.82114 20.6276C1.45545 20.2174 1.25 19.661 1.25 19.0808V7.73322C1.25 7.15305 1.45545 6.59666 1.82114 6.18642C2.18684 5.77618 2.68283 5.54572 3.2 5.54572H7.125L8.96998 3.41574C8.96998 3.41574 9.68311 2.73169 10.5775 2.73169ZM15.5 12.992C15.5 11.059 13.933 9.492 12 9.492C10.067 9.492 8.5 11.059 8.5 12.992C8.5 14.925 10.067 16.492 12 16.492C13.933 16.492 15.5 14.925 15.5 12.992Z" fill="#C4C9CF"/>
</svg>
