<svg width="14" height="14" viewBox="0 0 14 14" fill="none" xmlns="http://www.w3.org/2000/svg">
<path d="M7.58342 1.74996C7.58342 1.42779 7.32225 1.16663 7.00008 1.16663C6.67792 1.16663 6.41675 1.42779 6.41675 1.74996V6.41663H1.75008C1.42792 6.41663 1.16675 6.67779 1.16675 6.99996C1.16675 7.32213 1.42792 7.58329 1.75008 7.58329H6.41675V12.25C6.41675 12.5721 6.67792 12.8333 7.00008 12.8333C7.32225 12.8333 7.58342 12.5721 7.58342 12.25V7.58329H12.2501C12.5722 7.58329 12.8334 7.32213 12.8334 6.99996C12.8334 6.67779 12.5722 6.41663 12.2501 6.41663H7.58342V1.74996Z" fill="white"/>
</svg>
