<svg width="18" height="18" viewBox="0 0 18 18" fill="none" xmlns="http://www.w3.org/2000/svg">
<path d="M9.22532 5.8335C8.83254 5.76613 8.42859 5.83994 8.08501 6.04186C7.74143 6.24378 7.48041 6.56079 7.34816 6.93672C7.24507 7.22978 6.92393 7.38378 6.63087 7.28069C6.33782 7.1776 6.18382 6.85646 6.28691 6.5634C6.50732 5.93684 6.94237 5.4085 7.51499 5.07196C8.08762 4.73542 8.76087 4.6124 9.41551 4.72469C10.0702 4.83698 10.6639 5.17733 11.0917 5.68546C11.5193 6.19346 11.7534 6.83638 11.7525 7.50041C11.7524 8.54883 10.9735 9.25798 10.3771 9.65559C10.0617 9.86583 9.75035 10.0211 9.52005 10.1235C9.4041 10.175 9.3067 10.214 9.23696 10.2406L9.21992 10.2471C9.17784 10.2632 9.13527 10.2795 9.09201 10.2917C8.80476 10.3725 8.50177 10.214 8.4064 9.92794C8.30826 9.63351 8.46713 9.31529 8.7613 9.21672L8.76347 9.21597L8.77686 9.21128C8.78963 9.20674 8.80986 9.19939 8.83647 9.18926C8.88978 9.16895 8.96816 9.13764 9.06315 9.09542C9.25472 9.01027 9.50587 8.8843 9.75302 8.71953C10.2815 8.36718 10.6275 7.95145 10.6275 7.50006L10.6275 7.49922C10.6281 7.10071 10.4877 6.71484 10.231 6.40996C9.97437 6.10508 9.61811 5.90087 9.22532 5.8335Z" fill="#1B2129"/>
<path d="M8.99627 12C8.58412 12 8.25 12.3358 8.25 12.75C8.25 13.1642 8.58412 13.5 8.99627 13.5H9.00373C9.41588 13.5 9.75 13.1642 9.75 12.75C9.75 12.3358 9.41588 12 9.00373 12H8.99627Z" fill="#1B2129"/>
<path d="M17.0625 9C17.0625 13.4528 13.4528 17.0625 9 17.0625C4.5472 17.0625 0.9375 13.4528 0.9375 9C0.9375 4.5472 4.5472 0.9375 9 0.9375C13.4528 0.9375 17.0625 4.5472 17.0625 9ZM9 15.9375C12.8315 15.9375 15.9375 12.8315 15.9375 9C15.9375 5.16852 12.8315 2.0625 9 2.0625C5.16852 2.0625 2.0625 5.16852 2.0625 9C2.0625 12.8315 5.16852 15.9375 9 15.9375Z" fill="#1B2129"/>
</svg>
