<svg width="18" height="18" viewBox="0 0 18 18" fill="none" xmlns="http://www.w3.org/2000/svg">
<path d="M4.125 3.1875C3.87636 3.1875 3.6379 3.28627 3.46209 3.46209C3.28627 3.6379 3.1875 3.87636 3.1875 4.125V5.625C3.1875 5.93566 2.93566 6.1875 2.625 6.1875C2.31434 6.1875 2.0625 5.93566 2.0625 5.625V4.125C2.0625 3.57799 2.2798 3.05339 2.66659 2.66659C3.05339 2.2798 3.57799 2.0625 4.125 2.0625H5.625C5.93566 2.0625 6.1875 2.31434 6.1875 2.625C6.1875 2.93566 5.93566 3.1875 5.625 3.1875H4.125Z" fill="#1B2129"/>
<path d="M11.8125 2.625C11.8125 2.31434 12.0643 2.0625 12.375 2.0625H13.875C14.422 2.0625 14.9466 2.2798 15.3334 2.66659C15.7202 3.05339 15.9375 3.57799 15.9375 4.125V5.625C15.9375 5.93566 15.6857 6.1875 15.375 6.1875C15.0643 6.1875 14.8125 5.93566 14.8125 5.625V4.125C14.8125 3.87636 14.7137 3.6379 14.5379 3.46209C14.3621 3.28627 14.1236 3.1875 13.875 3.1875H12.375C12.0643 3.1875 11.8125 2.93566 11.8125 2.625Z" fill="#1B2129"/>
<path d="M15.9375 12.375C15.9375 12.0643 15.6857 11.8125 15.375 11.8125C15.0643 11.8125 14.8125 12.0643 14.8125 12.375V13.875C14.8125 14.1236 14.7137 14.3621 14.5379 14.5379C14.3621 14.7137 14.1236 14.8125 13.875 14.8125H12.375C12.0643 14.8125 11.8125 15.0643 11.8125 15.375C11.8125 15.6857 12.0643 15.9375 12.375 15.9375H13.875C14.422 15.9375 14.9466 15.7202 15.3334 15.3334C15.7202 14.9466 15.9375 14.422 15.9375 13.875V12.375Z" fill="#1B2129"/>
<path d="M2.625 11.8125C2.93566 11.8125 3.1875 12.0643 3.1875 12.375V13.875C3.1875 14.1236 3.28627 14.3621 3.46209 14.5379C3.6379 14.7137 3.87636 14.8125 4.125 14.8125H5.625C5.93566 14.8125 6.1875 15.0643 6.1875 15.375C6.1875 15.6857 5.93566 15.9375 5.625 15.9375H4.125C3.57799 15.9375 3.05339 15.7202 2.66659 15.3334C2.2798 14.9466 2.0625 14.422 2.0625 13.875V12.375C2.0625 12.0643 2.31434 11.8125 2.625 11.8125Z" fill="#1B2129"/>
<path d="M5.25 8.25C4.83579 8.25 4.5 8.58579 4.5 9C4.5 9.41421 4.83579 9.75 5.25 9.75H12.75C13.1642 9.75 13.5 9.41421 13.5 9C13.5 8.58579 13.1642 8.25 12.75 8.25H5.25Z" fill="#1B2129"/>
</svg>
