<svg width="16" height="16" viewBox="0 0 16 16" fill="none" xmlns="http://www.w3.org/2000/svg">
<path fill-rule="evenodd" clip-rule="evenodd" d="M7.64563 2.14636C4.60806 2.14636 2.14563 4.6088 2.14563 7.64636C2.14563 10.6839 4.60806 13.1464 7.64563 13.1464C8.98441 13.1464 10.2115 12.668 11.1652 11.8729L13.0008 13.7074C13.1961 13.9026 13.5127 13.9025 13.7079 13.7072C13.9031 13.5118 13.903 13.1953 13.7077 13.0001L11.8723 11.1658C12.6673 10.2121 13.1456 8.98508 13.1456 7.64636C13.1456 4.6088 10.6832 2.14636 7.64563 2.14636ZM3.14563 7.64636C3.14563 5.16108 5.16035 3.14636 7.64563 3.14636C10.1309 3.14636 12.1456 5.16108 12.1456 7.64636C12.1456 10.1316 10.1309 12.1464 7.64563 12.1464C5.16035 12.1464 3.14563 10.1316 3.14563 7.64636Z" fill="#8B949E"/>
</svg>
