<svg width="22" height="22" viewBox="0 0 22 22" fill="none" xmlns="http://www.w3.org/2000/svg">
<path d="M11 1.14551C16.4423 1.14551 20.8545 5.55769 20.8545 11C20.8545 16.4423 16.4423 20.8545 11 20.8545C5.55769 20.8545 1.14551 16.4423 1.14551 11C1.14551 5.55769 5.55769 1.14551 11 1.14551ZM14.8057 10.3457C14.4447 10.2285 14.0569 10.4263 13.9395 10.7871C13.8441 11.0807 13.5545 11.4204 13.0186 11.6973C12.4928 11.9689 11.7898 12.1455 11 12.1455C10.2101 12.1455 9.50726 11.9689 8.98145 11.6973C8.44546 11.4204 8.15592 11.0807 8.06055 10.7871C7.94311 10.4263 7.55527 10.2286 7.19434 10.3457C6.83332 10.463 6.63587 10.8509 6.75293 11.2119C6.99722 11.9641 7.61764 12.5407 8.34961 12.9189C9.09202 13.3025 10.016 13.5205 11 13.5205C11.9839 13.5205 12.908 13.3025 13.6504 12.9189C14.3823 12.5407 15.0028 11.9641 15.2471 11.2119C15.3641 10.8509 15.1667 10.463 14.8057 10.3457ZM8.24512 7.33301C7.74167 7.33323 7.33318 7.74402 7.33301 8.25C7.33318 8.75598 7.74167 9.1658 8.24512 9.16602H8.25488C8.75837 9.16584 9.16682 8.756 9.16699 8.25C9.16682 7.744 8.75837 7.33318 8.25488 7.33301H8.24512ZM13.7451 7.33301C13.2417 7.33323 12.8332 7.74402 12.833 8.25C12.8332 8.75598 13.2417 9.1658 13.7451 9.16602H13.7549C14.2584 9.16584 14.6668 8.756 14.667 8.25C14.6668 7.744 14.2584 7.33318 13.7549 7.33301H13.7451Z" fill="#1B2129"/>
</svg>
