<svg width="22" height="22" viewBox="0 0 22 22" fill="none" xmlns="http://www.w3.org/2000/svg">
<path d="M13.7455 7.33337C13.2417 7.33337 12.8334 7.74378 12.8334 8.25004C12.8334 8.7563 13.2417 9.16671 13.7455 9.16671H13.7546C14.2583 9.16671 14.6667 8.7563 14.6667 8.25004C14.6667 7.74378 14.2583 7.33337 13.7546 7.33337H13.7455Z" fill="#8B949E"/>
<path d="M7.33337 8.25004C7.33337 7.74378 7.74174 7.33337 8.24548 7.33337H8.2546C8.75834 7.33337 9.16671 7.74378 9.16671 8.25004C9.16671 8.7563 8.75834 9.16671 8.2546 9.16671H8.24548C7.74174 9.16671 7.33337 8.7563 7.33337 8.25004Z" fill="#8B949E"/>
<path d="M8.06061 10.7876C7.94332 10.4265 7.55549 10.2288 7.19436 10.3461C6.83323 10.4634 6.63556 10.8512 6.75285 11.2124C6.99721 11.9647 7.61782 12.5415 8.35004 12.9197C9.09246 13.3033 10.0161 13.5208 11 13.5208C11.984 13.5208 12.9076 13.3033 13.6501 12.9197C14.3823 12.5415 15.0029 11.9647 15.2472 11.2124C15.3645 10.8512 15.1669 10.4634 14.8057 10.3461C14.4446 10.2288 14.0568 10.4265 13.9395 10.7876C13.8441 11.0813 13.555 11.4212 13.019 11.6981C12.4932 11.9698 11.79 12.1458 11 12.1458C10.2101 12.1458 9.50694 11.9698 8.98111 11.6981C8.44508 11.4212 8.15598 11.0813 8.06061 10.7876Z" fill="#8B949E"/>
<path fill-rule="evenodd" clip-rule="evenodd" d="M11 20.8542C16.4423 20.8542 20.8542 16.4423 20.8542 11C20.8542 5.55773 16.4423 1.14587 11 1.14587C5.55773 1.14587 1.14587 5.55773 1.14587 11C1.14587 16.4423 5.55773 20.8542 11 20.8542ZM19.4792 11C19.4792 15.683 15.683 19.4792 11 19.4792C6.31713 19.4792 2.52087 15.683 2.52087 11C2.52087 6.31713 6.31713 2.52087 11 2.52087C15.683 2.52087 19.4792 6.31713 19.4792 11Z" fill="#8B949E"/>
</svg>
