<svg width="22" height="22" viewBox="0 0 22 22" fill="none" xmlns="http://www.w3.org/2000/svg">
<path fill-rule="evenodd" clip-rule="evenodd" d="M11.789 2.53835L19.4853 9.13515C19.7416 9.35486 19.7713 9.74078 19.5516 9.99711C19.3319 10.2534 18.946 10.2831 18.6896 10.0634L18.3285 9.75325L18.329 18.5553C18.329 19.2306 17.7806 19.778 17.1042 19.778H13.4385C12.7621 19.778 12.2137 19.2306 12.2137 18.5553V14.8875H9.77076V18.5553L9.75927 18.5554C9.75927 19.2306 9.21091 19.778 8.53446 19.778H4.88255C4.20611 19.778 3.65775 19.2306 3.65775 18.5553L3.65728 9.75325L3.29711 10.0634C3.04077 10.2831 2.65486 10.2534 2.43514 9.99711C2.21543 9.74078 2.24511 9.35486 2.50145 9.13515L10.1977 2.53835C10.6556 2.14591 11.3312 2.14591 11.789 2.53835Z" fill="#1B2129"/>
</svg>
