<svg width="22" height="22" viewBox="0 0 22 22" fill="none" xmlns="http://www.w3.org/2000/svg">
<path d="M11.7954 2.32134L19.4893 8.91608C19.7455 9.13573 19.7752 9.52152 19.5555 9.77777C19.3359 10.034 18.9501 10.0637 18.6938 9.84406L18.3333 9.53504V18.3333C18.3333 19.0083 17.7851 19.5556 17.1089 19.5556H13.4444C12.7681 19.5556 12.2199 19.0083 12.2199 18.3333V14.6667L9.76567 14.6666L9.76628 18.3334C9.76628 19.0084 9.21809 19.5556 8.54185 19.5556H4.89107C4.21485 19.5556 3.66666 19.0083 3.66666 18.3333L3.66665 9.53502L3.30613 9.84406C3.04988 10.0637 2.66408 10.034 2.44443 9.77777C2.22479 9.52152 2.25446 9.13573 2.51072 8.91608L10.2046 2.32134C10.6623 1.92902 11.3377 1.92902 11.7954 2.32134ZM11 3.24932L4.89106 8.48553V18.3334H8.54186L8.54125 14.6667C8.54116 13.9917 9.08928 13.4444 9.76561 13.4444L12.2199 13.4444C12.8962 13.4444 13.4444 13.9916 13.4444 14.6667V18.3334H17.1089V8.48553L11 3.24932Z" fill="#8B949E"/>
</svg>
