<svg width="20" height="20" viewBox="0 0 20 20" fill="none" xmlns="http://www.w3.org/2000/svg">
<path d="M2.50007 5C2.50007 4.53976 2.87317 4.16667 3.3334 4.16667H16.6667C17.127 4.16667 17.5001 4.53976 17.5001 5C17.5001 5.46024 17.127 5.83333 16.6667 5.83333H3.3334C2.87317 5.83333 2.50007 5.46024 2.50007 5Z" fill="#8B949E"/>
<path d="M2.50007 10C2.50007 9.53976 2.87317 9.16667 3.3334 9.16667H16.6667C17.127 9.16667 17.5001 9.53976 17.5001 10C17.5001 10.4602 17.127 10.8333 16.6667 10.8333H3.3334C2.87317 10.8333 2.50007 10.4602 2.50007 10Z" fill="#8B949E"/>
<path d="M3.3334 14.1667C2.87317 14.1667 2.50007 14.5398 2.50007 15C2.50007 15.4602 2.87317 15.8333 3.3334 15.8333H16.6667C17.127 15.8333 17.5001 15.4602 17.5001 15C17.5001 14.5398 17.127 14.1667 16.6667 14.1667H3.3334Z" fill="#8B949E"/>
</svg>
