<svg width="18" height="18" viewBox="0 0 18 18" fill="none" xmlns="http://www.w3.org/2000/svg">
<path d="M12.1989 6.73826C14.7429 6.73826 17.0081 8.57833 17.0081 10.8377C17.0081 12.098 16.1777 13.2157 15.06 14.0663L15.026 14.092L15.4529 15.502L13.9 14.6547L13.7381 14.6944C13.2251 14.8198 12.7093 14.9371 12.1989 14.9371C9.50466 14.9371 7.38324 13.0992 7.38324 10.8377C7.38324 8.5805 9.50466 6.73826 12.1989 6.73826ZM6.67101 2.50195C9.45457 2.50195 11.894 4.19213 12.3862 6.4667C12.2076 6.44715 12.0269 6.43411 11.8417 6.43411C9.15182 6.43411 7.02603 8.43712 7.02603 10.905C7.02603 11.3156 7.0892 11.711 7.20028 12.089C7.02603 12.1021 6.84961 12.1108 6.67101 12.1108C5.98427 12.1108 5.42873 11.9758 4.74982 11.8408L4.6868 11.8283L2.70694 12.819L3.27324 11.1201C1.8575 10.1295 1.00806 8.85641 1.00806 7.30527C1.00806 4.61793 3.55856 2.50195 6.67101 2.50195ZM10.707 8.9281C10.3519 8.9281 10.0644 9.21486 10.0644 9.56897C10.0644 9.92308 10.3519 10.2098 10.707 10.2098C11.062 10.2098 11.3495 9.92308 11.3495 9.56897C11.3495 9.21486 11.062 8.9281 10.707 8.9281ZM13.8238 8.92375C13.4687 8.92375 13.1812 9.21052 13.1812 9.56463C13.1812 9.91874 13.4687 10.2055 13.8238 10.2055C14.1788 10.2055 14.4663 9.91874 14.4663 9.56463C14.4663 9.21052 14.1788 8.92375 13.8238 8.92375ZM4.76739 4.84387C4.34267 4.84387 3.99853 5.18712 3.99853 5.61075C3.99853 6.03438 4.34267 6.37763 4.76739 6.37763C5.19429 6.37763 5.53842 6.0322 5.53626 5.61075C5.53626 5.18712 5.19211 4.84387 4.76739 4.84387ZM8.72274 4.84387C8.29802 4.84387 7.95389 5.18712 7.95389 5.61075C7.95389 6.03438 8.29802 6.37763 8.72274 6.37763C9.14746 6.37763 9.49377 6.0322 9.49162 5.61075C9.49162 5.18712 9.14746 4.84387 8.72274 4.84387Z" fill="#3FBE72"/>
</svg>
