<svg width="16" height="16" viewBox="0 0 16 16" fill="none" xmlns="http://www.w3.org/2000/svg">
<path d="M7.33333 4.83333C7.60948 4.83333 7.83333 5.05719 7.83333 5.33333V6.83333H9.33333C9.60948 6.83333 9.83333 7.05719 9.83333 7.33333C9.83333 7.60948 9.60948 7.83333 9.33333 7.83333H7.83333V9.33333C7.83333 9.60948 7.60948 9.83333 7.33333 9.83333C7.05719 9.83333 6.83333 9.60948 6.83333 9.33333V7.83333H5.33333C5.05719 7.83333 4.83333 7.60948 4.83333 7.33333C4.83333 7.05719 5.05719 6.83333 5.33333 6.83333H6.83333V5.33333C6.83333 5.05719 7.05719 4.83333 7.33333 4.83333Z" fill="#1B2129"/>
<path fill-rule="evenodd" clip-rule="evenodd" d="M7.33333 1.5C10.555 1.5 13.1667 4.11167 13.1667 7.33333C13.1667 8.76413 12.6505 10.0737 11.7956 11.0885L14.3535 13.6465C14.5485 13.8418 14.5487 14.1583 14.3535 14.3535C14.1583 14.5487 13.8418 14.5485 13.6465 14.3535L11.0885 11.7956C10.0737 12.6505 8.76413 13.1667 7.33333 13.1667C4.11167 13.1667 1.5 10.555 1.5 7.33333C1.5 4.11167 4.11167 1.5 7.33333 1.5ZM7.33333 2.5C4.66396 2.5 2.5 4.66396 2.5 7.33333C2.5 10.0027 4.66396 12.1667 7.33333 12.1667C8.64367 12.1667 9.83123 11.6442 10.7018 10.7975C10.7154 10.7798 10.7305 10.763 10.7467 10.7467C10.763 10.7305 10.7798 10.7154 10.7975 10.7018C11.6442 9.83123 12.1667 8.64367 12.1667 7.33333C12.1667 4.66396 10.0027 2.5 7.33333 2.5Z" fill="#1B2129"/>
</svg>
